<svg xmlns="http://www.w3.org/2000/svg" xmlns:xlink="http://www.w3.org/1999/xlink" width="1920" zoomAndPan="magnify" viewBox="0 0 1440 809.999993" height="1080" preserveAspectRatio="xMidYMid meet" version="1.0">
  <defs>
    <clipPath id="38d924d1f0"><path d="M 759 271 L 1053 271 L 1053 518 L 759 518 Z M 759 271 " clip-rule="nonzero"/></clipPath>
    <clipPath id="5bb8603699"><path d="M 1013.628906 536.566406 L 739.703125 328.9375 L 797.539062 252.628906 L 1071.464844 460.257812 Z M 1013.628906 536.566406 " clip-rule="nonzero"/></clipPath>
    <clipPath id="66f6b1a62c"><path d="M 975.476562 507.644531 L 778 357.964844 C 756.929688 341.992188 752.792969 311.964844 768.765625 290.894531 C 784.738281 269.820312 814.765625 265.6875 835.835938 281.660156 L 1033.3125 431.339844 C 1054.382812 447.3125 1058.519531 477.339844 1042.546875 498.414062 C 1026.574219 519.484375 996.546875 523.617188 975.476562 507.644531 Z M 975.476562 507.644531 " clip-rule="nonzero"/></clipPath>
    <clipPath id="fa43f87446"><path d="M 762 424 L 1051 424 L 1051 678 L 762 678 Z M 762 424 " clip-rule="nonzero"/></clipPath>
    <clipPath id="698d425597"><path d="M 1069.570312 479.054688 L 803.644531 696.835938 L 742.976562 622.757812 L 1008.902344 404.976562 Z M 1069.570312 479.054688 " clip-rule="nonzero"/></clipPath>
    <clipPath id="173df1c54e"><path d="M 1032.53125 509.386719 L 840.820312 666.390625 C 820.367188 683.140625 790.203125 680.140625 773.449219 659.683594 C 756.699219 639.226562 759.699219 609.0625 780.15625 592.3125 L 971.863281 435.3125 C 992.320312 418.558594 1022.484375 421.558594 1039.234375 442.015625 C 1055.988281 462.472656 1052.988281 492.636719 1032.53125 509.386719 Z M 1032.53125 509.386719 " clip-rule="nonzero"/></clipPath>
    <clipPath id="f8e0c10824"><path d="M 462 249 L 764 249 L 764 483 L 462 483 Z M 462 249 " clip-rule="nonzero"/></clipPath>
    <clipPath id="14c5f5bf02"><path d="M 496.917969 230.585938 L 782.648438 421.644531 L 729.429688 501.238281 L 443.695312 310.179688 Z M 496.917969 230.585938 " clip-rule="nonzero"/></clipPath>
    <clipPath id="418bcc4f14"><path d="M 536.714844 257.195312 L 742.703125 394.933594 C 764.679688 409.628906 770.585938 439.359375 755.886719 461.339844 C 741.191406 483.320312 711.460938 489.222656 689.480469 474.527344 L 483.492188 336.792969 C 461.515625 322.09375 455.609375 292.363281 470.308594 270.382812 C 485.003906 248.40625 514.734375 242.5 536.714844 257.195312 Z M 536.714844 257.195312 " clip-rule="nonzero"/></clipPath>
    <clipPath id="7c115c3821"><path d="M 464 78 L 743 78 L 743 342 L 464 342 Z M 464 78 " clip-rule="nonzero"/></clipPath>
    <clipPath id="5884e4c79e"><path d="M 444.476562 291.304688 L 697.050781 58.171875 L 761.996094 128.527344 L 509.421875 361.664062 Z M 444.476562 291.304688 " clip-rule="nonzero"/></clipPath>
    <clipPath id="20acacd8ce"><path d="M 479.65625 258.835938 L 661.738281 90.765625 C 681.167969 72.832031 711.457031 74.042969 729.390625 93.472656 C 747.324219 112.902344 746.109375 143.191406 726.683594 161.125 L 544.597656 329.191406 C 525.171875 347.125 494.882812 345.914062 476.949219 326.484375 C 459.015625 307.054688 460.226562 276.769531 479.65625 258.835938 Z M 479.65625 258.835938 " clip-rule="nonzero"/></clipPath>
    <clipPath id="c206afd5f7"><path d="M 759 271 L 964 271 L 964 451 L 759 451 Z M 759 271 " clip-rule="nonzero"/></clipPath>
    <clipPath id="f1ffbce963"><path d="M 925.160156 469.496094 L 739.757812 328.96875 L 797.597656 252.664062 L 982.996094 393.191406 Z M 925.160156 469.496094 " clip-rule="nonzero"/></clipPath>
    <clipPath id="b9857b7aa1"><path d="M 887.003906 440.578125 L 778.027344 357.972656 C 756.953125 342.003906 752.820312 311.972656 768.792969 290.902344 C 784.761719 269.832031 814.792969 265.695312 835.863281 281.667969 L 944.84375 364.273438 C 965.914062 380.242188 970.050781 410.273438 954.078125 431.34375 C 938.105469 452.414062 908.078125 456.550781 887.003906 440.578125 Z M 887.003906 440.578125 " clip-rule="nonzero"/></clipPath>
    <clipPath id="3b3d9c2c00"><path d="M 554 308 L 764 308 L 764 481 L 554 481 Z M 554 308 " clip-rule="nonzero"/></clipPath>
    <clipPath id="9a05340014"><path d="M 729.039062 499.28125 L 536.03125 369.402344 L 589.484375 289.964844 L 782.492188 419.839844 Z M 729.039062 499.28125 " clip-rule="nonzero"/></clipPath>
    <clipPath id="4a34439ab8"><path d="M 689.320312 472.550781 L 575.867188 396.207031 C 553.929688 381.449219 548.113281 351.699219 562.875 329.761719 C 577.636719 307.824219 607.386719 302.007812 629.320312 316.769531 L 742.773438 393.113281 C 764.710938 407.875 770.527344 437.625 755.765625 459.5625 C 741.003906 481.496094 711.257812 487.3125 689.320312 472.550781 Z M 689.320312 472.550781 " clip-rule="nonzero"/></clipPath>
  </defs>

  <g clip-path="url(#38d924d1f0)">
    <g clip-path="url(#5bb8603699)">
      <g clip-path="url(#66f6b1a62c)">
        <path fill="#006fbf" d="M 1013.628906 536.566406 L 739.703125 328.9375 L 797.539062 252.628906 L 1071.464844 460.257812 Z M 1013.628906 536.566406 " fill-opacity="1" fill-rule="nonzero"/>
      </g>
    </g>
  </g>
  <g clip-path="url(#fa43f87446)">
    <g clip-path="url(#698d425597)">
      <g clip-path="url(#173df1c54e)">
        <path fill="#006fbf" d="M 1069.570312 479.054688 L 803.644531 696.835938 L 742.976562 622.757812 L 1008.902344 404.976562 Z M 1069.570312 479.054688 " fill-opacity="1" fill-rule="nonzero"/>
      </g>
    </g>
  </g>
  <g clip-path="url(#f8e0c10824)">
    <g clip-path="url(#14c5f5bf02)">
      <g clip-path="url(#418bcc4f14)">
        <path fill="#006fbf" d="M 496.917969 230.585938 L 782.648438 421.644531 L 729.429688 501.238281 L 443.695312 310.179688 Z M 496.917969 230.585938 " fill-opacity="1" fill-rule="nonzero"/>
      </g>
    </g>
  </g>
  <g clip-path="url(#7c115c3821)">
    <g clip-path="url(#5884e4c79e)">
      <g clip-path="url(#20acacd8ce)">
        <path fill="#006fbf" d="M 444.476562 291.304688 L 697.050781 58.171875 L 761.996094 128.527344 L 509.421875 361.664062 Z M 444.476562 291.304688 " fill-opacity="1" fill-rule="nonzero"/>
      </g>
    </g>
  </g>
  <g clip-path="url(#c206afd5f7)">
    <g clip-path="url(#f1ffbce963)">
      <g clip-path="url(#b9857b7aa1)">
        <path fill="#1887c6" d="M 925.160156 469.496094 L 739.757812 328.96875 L 797.597656 252.664062 L 982.996094 393.191406 Z M 925.160156 469.496094 " fill-opacity="1" fill-rule="nonzero"/>
      </g>
    </g>
  </g>
  <g clip-path="url(#3b3d9c2c00)">
    <g clip-path="url(#9a05340014)">
      <g clip-path="url(#4a34439ab8)">
        <path fill="#1887c6" d="M 729.039062 499.28125 L 536.03125 369.402344 L 589.484375 289.964844 L 782.492188 419.839844 Z M 729.039062 499.28125 " fill-opacity="1" fill-rule="nonzero"/>
      </g>
    </g>
  </g>
</svg>
