<svg xmlns="http://www.w3.org/2000/svg" xmlns:xlink="http://www.w3.org/1999/xlink" width="200" zoomAndPan="magnify" viewBox="0 0 150 149.999998" height="200" preserveAspectRatio="xMidYMid meet" version="1.0"><defs><clipPath id="daf323b502"><path d="M 63.1875 62.988281 L 86.8125 62.988281 L 86.8125 87 L 63.1875 87 Z M 63.1875 62.988281 " clip-rule="nonzero"/></clipPath><clipPath id="2b71f03742"><path d="M 65.4375 62.988281 L 84.5625 62.988281 C 85.160156 62.988281 85.730469 63.222656 86.152344 63.644531 C 86.574219 64.066406 86.8125 64.640625 86.8125 65.238281 L 86.8125 84.761719 C 86.8125 85.359375 86.574219 85.933594 86.152344 86.355469 C 85.730469 86.777344 85.160156 87.011719 84.5625 87.011719 L 65.4375 87.011719 C 64.839844 87.011719 64.269531 86.777344 63.847656 86.355469 C 63.425781 85.933594 63.1875 85.359375 63.1875 84.761719 L 63.1875 65.238281 C 63.1875 64.640625 63.425781 64.066406 63.847656 63.644531 C 64.269531 63.222656 64.839844 62.988281 65.4375 62.988281 Z M 65.4375 62.988281 " clip-rule="nonzero"/></clipPath><clipPath id="8330b4f7ee"><path d="M 68.035156 67.277344 L 81.792969 67.277344 L 81.792969 81.945312 L 68.035156 81.945312 Z M 68.035156 67.277344 " clip-rule="nonzero"/></clipPath><clipPath id="715ca40ceb"><path d="M 72.535156 67.277344 L 77.292969 67.277344 C 78.488281 67.277344 79.632812 67.75 80.476562 68.59375 C 81.320312 69.4375 81.792969 70.582031 81.792969 71.777344 L 81.792969 77.410156 C 81.792969 78.601562 81.320312 79.746094 80.476562 80.589844 C 79.632812 81.433594 78.488281 81.910156 77.292969 81.910156 L 72.535156 81.910156 C 71.34375 81.910156 70.199219 81.433594 69.355469 80.589844 C 68.511719 79.746094 68.035156 78.601562 68.035156 77.410156 L 68.035156 71.777344 C 68.035156 70.582031 68.511719 69.4375 69.355469 68.59375 C 70.199219 67.75 71.34375 67.277344 72.535156 67.277344 Z M 72.535156 67.277344 " clip-rule="nonzero"/></clipPath><clipPath id="391fe0f082"><path d="M 75 72 L 81 72 L 81 77 L 75 77 Z M 75 72 " clip-rule="nonzero"/></clipPath><clipPath id="c22ab4efe3"><path d="M 79.5 77.261719 L 74.84375 73.730469 L 75.835938 72.421875 L 80.496094 75.953125 Z M 79.5 77.261719 " clip-rule="nonzero"/></clipPath><clipPath id="a3199ce22b"><path d="M 78.847656 76.765625 L 75.503906 74.230469 C 75.328125 74.101562 75.214844 73.90625 75.183594 73.6875 C 75.15625 73.472656 75.214844 73.253906 75.34375 73.082031 C 75.476562 72.90625 75.671875 72.792969 75.886719 72.761719 C 76.105469 72.734375 76.324219 72.789062 76.496094 72.921875 L 79.839844 75.457031 C 80.011719 75.585938 80.128906 75.78125 80.15625 76 C 80.1875 76.214844 80.128906 76.433594 80 76.609375 C 79.867188 76.78125 79.671875 76.894531 79.457031 76.925781 C 79.238281 76.957031 79.019531 76.898438 78.847656 76.765625 Z M 78.847656 76.765625 " clip-rule="nonzero"/></clipPath><clipPath id="6623bfdf5d"><path d="M 75 75 L 81 75 L 81 80 L 75 80 Z M 75 75 " clip-rule="nonzero"/></clipPath><clipPath id="fa3871dab7"><path d="M 80.460938 76.296875 L 75.9375 79.996094 L 74.898438 78.726562 L 79.417969 75.023438 Z M 80.460938 76.296875 " clip-rule="nonzero"/></clipPath><clipPath id="323275c040"><path d="M 79.824219 76.816406 L 76.578125 79.472656 C 76.226562 79.761719 75.707031 79.710938 75.421875 79.359375 C 75.132812 79.007812 75.183594 78.488281 75.535156 78.199219 L 78.78125 75.542969 C 79.132812 75.253906 79.652344 75.308594 79.9375 75.660156 C 80.226562 76.011719 80.175781 76.527344 79.824219 76.816406 Z M 79.824219 76.816406 " clip-rule="nonzero"/></clipPath><clipPath id="550d6871f8"><path d="M 70 72 L 76 72 L 76 77 L 70 77 Z M 70 72 " clip-rule="nonzero"/></clipPath><clipPath id="635e6352b4"><path d="M 70.730469 72.0625 L 75.589844 75.308594 L 74.675781 76.675781 L 69.820312 73.425781 Z M 70.730469 72.0625 " clip-rule="nonzero"/></clipPath><clipPath id="919cbc4786"><path d="M 71.414062 72.515625 L 74.902344 74.851562 C 75.085938 74.972656 75.210938 75.160156 75.253906 75.371094 C 75.292969 75.585938 75.25 75.808594 75.128906 75.988281 C 75.007812 76.171875 74.820312 76.296875 74.605469 76.339844 C 74.394531 76.378906 74.171875 76.335938 73.992188 76.214844 L 70.5 73.882812 C 70.320312 73.761719 70.195312 73.574219 70.152344 73.359375 C 70.109375 73.144531 70.15625 72.925781 70.277344 72.742188 C 70.398438 72.5625 70.585938 72.4375 70.796875 72.394531 C 71.011719 72.351562 71.234375 72.394531 71.414062 72.515625 Z M 71.414062 72.515625 " clip-rule="nonzero"/></clipPath><clipPath id="1a71453317"><path d="M 70 69 L 75 69 L 75 74 L 70 74 Z M 70 69 " clip-rule="nonzero"/></clipPath><clipPath id="ba0007c641"><path d="M 69.832031 73.089844 L 74.128906 69.125 L 75.246094 70.335938 L 70.949219 74.300781 Z M 69.832031 73.089844 " clip-rule="nonzero"/></clipPath><clipPath id="88e2f91dc5"><path d="M 70.4375 72.53125 L 73.519531 69.6875 C 73.851562 69.378906 74.375 69.398438 74.683594 69.734375 C 74.992188 70.070312 74.96875 70.589844 74.636719 70.898438 L 71.554688 73.742188 C 71.21875 74.050781 70.699219 74.03125 70.390625 73.695312 C 70.082031 73.363281 70.101562 72.839844 70.4375 72.53125 Z M 70.4375 72.53125 " clip-rule="nonzero"/></clipPath><clipPath id="4c2a74402f"><path d="M 75 72 L 79 72 L 79 76 L 75 76 Z M 75 72 " clip-rule="nonzero"/></clipPath><clipPath id="94139d8b27"><path d="M 78 76.125 L 74.847656 73.738281 L 75.835938 72.433594 L 78.988281 74.820312 Z M 78 76.125 " clip-rule="nonzero"/></clipPath><clipPath id="80210c7fb2"><path d="M 77.347656 75.632812 L 75.5 74.234375 C 75.328125 74.101562 75.214844 73.90625 75.183594 73.691406 C 75.15625 73.476562 75.210938 73.257812 75.34375 73.085938 C 75.472656 72.914062 75.667969 72.796875 75.882812 72.769531 C 76.097656 72.738281 76.316406 72.796875 76.492188 72.925781 L 78.335938 74.324219 C 78.507812 74.457031 78.621094 74.652344 78.652344 74.867188 C 78.683594 75.082031 78.625 75.300781 78.492188 75.472656 C 78.363281 75.648438 78.167969 75.761719 77.953125 75.789062 C 77.738281 75.820312 77.519531 75.761719 77.347656 75.632812 Z M 77.347656 75.632812 " clip-rule="nonzero"/></clipPath><clipPath id="17a44468a6"><path d="M 71 73 L 76 73 L 76 77 L 71 77 Z M 71 73 " clip-rule="nonzero"/></clipPath><clipPath id="3a8dec5eed"><path d="M 74.667969 76.632812 L 71.382812 74.421875 L 72.296875 73.066406 L 75.582031 75.273438 Z M 74.667969 76.632812 " clip-rule="nonzero"/></clipPath><clipPath id="0a5095fc6e"><path d="M 73.988281 76.175781 L 72.066406 74.882812 C 71.886719 74.761719 71.761719 74.574219 71.722656 74.359375 C 71.679688 74.148438 71.726562 73.925781 71.847656 73.746094 C 71.96875 73.566406 72.15625 73.441406 72.367188 73.402344 C 72.582031 73.359375 72.800781 73.402344 72.980469 73.523438 L 74.902344 74.816406 C 75.082031 74.9375 75.207031 75.128906 75.25 75.339844 C 75.292969 75.554688 75.246094 75.773438 75.125 75.953125 C 75.003906 76.132812 74.816406 76.257812 74.605469 76.300781 C 74.390625 76.34375 74.167969 76.296875 73.988281 76.175781 Z M 73.988281 76.175781 " clip-rule="nonzero"/></clipPath></defs><g clip-path="url(#daf323b502)"><g clip-path="url(#2b71f03742)"><path fill="#012947" d="M 63.1875 62.988281 L 86.8125 62.988281 L 86.8125 86.980469 L 63.1875 86.980469 Z M 63.1875 62.988281 " fill-opacity="1" fill-rule="nonzero"/></g></g><g clip-path="url(#8330b4f7ee)"><g clip-path="url(#715ca40ceb)"><path fill="#d9d9d9" d="M 68.035156 67.277344 L 81.792969 67.277344 L 81.792969 81.894531 L 68.035156 81.894531 Z M 68.035156 67.277344 " fill-opacity="1" fill-rule="nonzero"/></g></g><g clip-path="url(#391fe0f082)"><g clip-path="url(#c22ab4efe3)"><g clip-path="url(#a3199ce22b)"><path fill="#006fbf" d="M 79.5 77.261719 L 74.847656 73.734375 L 75.84375 72.425781 L 80.496094 75.953125 Z M 79.5 77.261719 " fill-opacity="1" fill-rule="nonzero"/></g></g></g><g clip-path="url(#6623bfdf5d)"><g clip-path="url(#fa3871dab7)"><g clip-path="url(#323275c040)"><path fill="#006fbf" d="M 80.460938 76.296875 L 75.945312 79.992188 L 74.902344 78.71875 L 79.417969 75.023438 Z M 80.460938 76.296875 " fill-opacity="1" fill-rule="nonzero"/></g></g></g><g clip-path="url(#550d6871f8)"><g clip-path="url(#635e6352b4)"><g clip-path="url(#919cbc4786)"><path fill="#006fbf" d="M 70.730469 72.0625 L 75.585938 75.304688 L 74.671875 76.671875 L 69.820312 73.425781 Z M 70.730469 72.0625 " fill-opacity="1" fill-rule="nonzero"/></g></g></g><g clip-path="url(#1a71453317)"><g clip-path="url(#ba0007c641)"><g clip-path="url(#88e2f91dc5)"><path fill="#006fbf" d="M 69.832031 73.089844 L 74.121094 69.128906 L 75.242188 70.339844 L 70.949219 74.300781 Z M 69.832031 73.089844 " fill-opacity="1" fill-rule="nonzero"/></g></g></g><g clip-path="url(#4c2a74402f)"><g clip-path="url(#94139d8b27)"><g clip-path="url(#80210c7fb2)"><path fill="#1887c6" d="M 78 76.125 L 74.847656 73.738281 L 75.835938 72.433594 L 78.988281 74.820312 Z M 78 76.125 " fill-opacity="1" fill-rule="nonzero"/></g></g></g><g clip-path="url(#17a44468a6)"><g clip-path="url(#3a8dec5eed)"><g clip-path="url(#0a5095fc6e)"><path fill="#1887c6" d="M 74.667969 76.632812 L 71.390625 74.425781 L 72.304688 73.070312 L 75.582031 75.273438 Z M 74.667969 76.632812 " fill-opacity="1" fill-rule="nonzero"/></g></g></g></svg>